<?xml version="1.0" encoding="utf-8"?>
<!-- Svg Vector Icons : http://www.onlinewebfonts.com/icon -->
<!DOCTYPE svg PUBLIC "-//W3C//DTD SVG 1.1//EN" "http://www.w3.org/Graphics/SVG/1.1/DTD/svg11.dtd">
<svg version="1.1" xmlns="http://www.w3.org/2000/svg" xmlns:xlink="http://www.w3.org/1999/xlink" x="0px" y="0px" viewBox="0 0 256 256" enable-background="new 0 0 256 256" xml:space="preserve">
<metadata> Svg Vector Icons : http://www.onlinewebfonts.com/icon </metadata>
<g> <path fill="#000000" d="M94.6,7c10.8,0,21.7,0,32.5,0c3,1.4,6.7,1.9,10.4,2.8c8.1,2.1,16.5,5.6,23.2,9.5 c31.3,18.4,61.2,59.3,48.3,112.2c-2.6,10.6-7,21-12.3,29.3c-3.2,4.3-6.3,8.7-9.5,13c0.6,1.2,1,1.6,2.2,2.2c1.6-0.4,1.8-1.1,3.7-1.3 c3.9,2.1,7.9,5.1,11.7,6.9c0.9-0.4,1.8-1,2.8-0.6c3.8,1.7,7.3,5.5,10.2,8.2c10,9.3,18.9,19.2,28.4,29c-0.1,3.3-1.8,5.9-3,8.2 c-5.9,11.5-14.4,18.1-27.3,22.5c-3.4-1.6-5.5-4.5-8.2-6.7c-9.5-7.6-17.2-16.4-24.3-26.4c-1.5-1.8-3-3.6-4.5-5.4 c-0.9-1.7,0.4-3.4-0.2-5c-1.5-3.6-6-6.6-6.3-11.7c0.4-0.6,0.9-1.3,1.3-1.9c-0.2-1.7-1.2-2.4-2.4-3c-4.4,0.8-8.6,5.6-12.6,7.6 c-11.4,5.8-22.2,8.5-37.5,11.1c-4.2,0.7-11.1,1.5-16.3,0.7c-8.5-1.4-16.7-1.8-24-4.3c-37.5-13-61-39-69.3-81.5 c-1.8-9.3-1.8-22.6,0-31.8c1.6-8.3,3.6-16.7,6.9-23.6C28.2,46.2,42.4,30,61.8,18.9c6.6-3.7,14.6-7.1,22.5-9.1C87,9.1,93.3,9,94.6,7 L94.6,7z M105.2,36c-3,0.4-6.1,0.9-9.1,1.3c-4.4,1.4-8.8,2.8-13.2,4.1C64,49.5,51,64.3,43.4,83.7c-16.3,41.6,14.1,80.3,43.1,90.8 c7.7,2.8,18.6,5.5,29,4.3c29.3-3.4,50.6-19,60.4-41.8c2.2-5,3.9-10.7,5.2-16.5c3.5-16-0.7-33.3-6.1-44 C162.8,52,142.4,35.9,105.2,36L105.2,36z M83.7,74.8c12.8,0,25.6,0,38.3,0c6.5,0,13.8-0.6,17.8,1.9c4.9,3.3,6.9,9,8.9,15.2 c0.6,1.9,0.8,4.1,1.9,5.4c0.1,0,0.2,0,0.2,0c0.1-1.4,0.3-1.9,1.3-2.4c1.4-0.4,3.4,0.2,5,0.4c5.7,0.9,14.4-1.2,14.9,4.8 c-0.3,0.6-0.6,1.3-0.9,2c-4.3,0.7-11.5-1-14.7,0.6c0.1,0.2,0.2,0.3,0.2,0.4c3.5,1.2,6.6,2.8,8.7,5.4c3.7,4.8,9.3,21.9,3,26.2 c-5,3.5-18.2,1.5-26.2,1.5c-21.7,0-43.5,0-65.2,0c-8.8,0-23.7,2.3-27.7-2.8c-4.5-5.7,2.3-23.8,6.5-27.1c1.6-1.2,5.4-2,6.5-3.7 c-0.1-0.2-0.2-0.3-0.2-0.4c-4.8-0.1-9.5-0.2-14.3-0.2c-0.1-0.2-0.2-0.4-0.2-0.6c-0.6-1.1-0.3-2.3,0-3.5c3.4-2.4,14.4-3.9,19.7-3 c0.8,0.6,1,1.2,1.1,2.6c1.7-0.8,3.5-10.6,4.6-13C75.3,79.1,79.2,78.2,83.7,74.8L83.7,74.8z M87.4,79.4c-1.6,0.4-3.2,0.9-4.8,1.3 c-6.3,3.5-7.3,14.1-10.2,21c0.1,0.2,0.2,0.4,0.2,0.7c24.4,0,48.8,0,73.2,0c1.3-1.2-3.1-11.6-3.9-13.6c-1.5-3.7-1.8-5.9-5-7.8 c-3.6-2.1-9.7-1.3-15.4-1.3C110.2,79.5,98.8,79.4,87.4,79.4L87.4,79.4z M61.6,106c-4.5,3.3-6.9,4.7-8.4,11.3 c-0.2,1-0.8,1.8,0.2,2.6c4.6,0,9.3,0,13.9,0c5.8-7.9,1.1-8.1-4.1-13.9C62.6,106,62.1,106,61.6,106L61.6,106z M157,106 c-2.7,2-6.5,5-8,8c1.5,2.1,2.4,4.2,4.1,6.1c4.3-0.1,8.5-0.2,12.8-0.2c0.2-0.2,0.4-0.3,0.6-0.4C166.4,113,162.1,107.4,157,106 L157,106z M62.7,138.5c5-0.1,13.9-1.1,17.3,0.9c1.9,8.9-1,10.4-9.1,10.4c-2.2-0.1-4.5-0.2-6.7-0.2c-2.9-1.2-3.6-6.6-2.6-10.2 C62,139.1,62.3,138.8,62.7,138.5L62.7,138.5z M140.5,138.5c5.3,0,12.2-0.7,16.7,0.4c1.6,3.4,0.5,9.4-2.4,10.6 c-2.3,0.1-4.6,0.2-6.9,0.2c-8.1,0-10.4-2.1-8.9-10C139.5,139.4,140,138.9,140.5,138.5L140.5,138.5z"/></g>
</svg>