<?xml version="1.0" encoding="UTF-8"?>
<!DOCTYPE svg PUBLIC "-//W3C//DTD SVG 1.1//EN" "http://www.w3.org/Graphics/SVG/1.1/DTD/svg11.dtd">
<svg xmlns="http://www.w3.org/2000/svg" version="1.1" width="4000px" height="1927px" style="shape-rendering:geometricPrecision; text-rendering:geometricPrecision; image-rendering:optimizeQuality; fill-rule:evenodd; clip-rule:evenodd" xmlns:xlink="http://www.w3.org/1999/xlink">
<g><path style="opacity:0.997" fill="#1967e7" d="M 1074.5,17.5 C 1144.38,11.1225 1198.88,36.4558 1238,93.5C 1266.17,142.162 1270.17,192.829 1250,245.5C 1224.99,299.48 1183.16,332.314 1124.5,344C 1053.59,352.271 998.086,327.438 958,269.5C 935.515,232.4 928.182,192.4 936,149.5C 953.952,76.0512 1000.12,32.0512 1074.5,17.5 Z"/></g>
<g><path style="opacity:0.99" fill="#d32b52" d="M 1882.5,23.5 C 1962.83,23.3333 2043.17,23.5 2123.5,24C 2180.59,25.7107 2237.59,28.544 2294.5,32.5C 1954.49,33.8951 1620.83,79.8951 1293.5,170.5C 1290.72,150.376 1286.22,130.709 1280,111.5C 1276.25,102.721 1272.41,94.0543 1268.5,85.5C 1424.7,57.8085 1582.03,39.3085 1740.5,30C 1788,27.9169 1835.33,25.7503 1882.5,23.5 Z"/></g>
<g><path style="opacity:0.997" fill="#d32b52" d="M 3999.5,1479.5 C 3999.5,1491.17 3999.5,1502.83 3999.5,1514.5C 3880.55,1579.95 3757.22,1636.45 3629.5,1684C 3436.21,1753.36 3238.21,1806.02 3035.5,1842C 2815.48,1880.15 2593.82,1902.48 2370.5,1909C 2152.12,1915.06 1934.12,1908.73 1716.5,1890C 1491.25,1870.86 1268.92,1834.53 1049.5,1781C 921.39,1748.98 796.056,1708.65 673.5,1660C 561.873,1615.02 455.54,1560.36 354.5,1496C 284.636,1450.43 220.469,1397.6 162,1337.5C 113.805,1286.6 74.1385,1229.6 43,1166.5C 19.9494,1116.64 5.44936,1064.31 -0.5,1009.5C -0.5,983.833 -0.5,958.167 -0.5,932.5C 7.36457,862.406 28.1979,796.406 62,734.5C 103.435,662.385 154.601,597.885 215.5,541C 291.533,471.599 374.2,411.599 463.5,361C 573.062,299.397 687.396,247.73 806.5,206C 838.098,195.412 869.765,184.912 901.5,174.5C 901.704,216.835 913.371,255.502 936.5,290.5C 873.28,317.117 810.947,345.284 749.5,375C 680.73,409.871 614.396,448.538 550.5,491C 486.734,534.118 427.901,582.952 374,637.5C 343.974,669.536 317.307,704.203 294,741.5C 269.839,780.832 253.172,823.165 244,868.5C 238.64,896.844 237.473,925.344 240.5,954C 248.325,1019.92 268.159,1081.75 300,1139.5C 318.022,1170.22 338.022,1199.55 360,1227.5C 410.868,1288.37 468.702,1341.54 533.5,1387C 603.676,1435.77 677.676,1478.44 755.5,1515C 861.014,1563.24 969.681,1603.57 1081.5,1636C 1244.33,1682.07 1409.66,1716.41 1577.5,1739C 1811.77,1770 2047.11,1784.83 2283.5,1783.5C 2531.47,1784.31 2778.47,1769.48 3024.5,1739C 3214.34,1715.04 3401.67,1678.7 3586.5,1630C 3700.54,1598.43 3812.21,1560.1 3921.5,1515C 3947.68,1503.41 3973.68,1491.57 3999.5,1479.5 Z"/></g>
<g><path style="opacity:0.994" fill="#1868e7" d="M 1715.5,375.5 C 1735.8,375.026 1755.13,379.026 1773.5,387.5C 1774.5,413.825 1774.83,440.158 1774.5,466.5C 1768.64,464.908 1762.98,462.742 1757.5,460C 1730.82,452.07 1714.65,461.57 1709,488.5C 1708.5,539.832 1708.33,591.166 1708.5,642.5C 1729.17,642.5 1749.83,642.5 1770.5,642.5C 1770.5,662.5 1770.5,682.5 1770.5,702.5C 1749.83,702.5 1729.17,702.5 1708.5,702.5C 1708.67,817.167 1708.5,931.834 1708,1046.5C 1682.57,1047.49 1657.07,1047.83 1631.5,1047.5C 1631.5,932.5 1631.5,817.5 1631.5,702.5C 1618.83,702.5 1606.17,702.5 1593.5,702.5C 1593.5,682.5 1593.5,662.5 1593.5,642.5C 1606.17,642.5 1618.83,642.5 1631.5,642.5C 1631.33,590.166 1631.5,537.832 1632,485.5C 1632.25,464.608 1635.59,444.275 1642,424.5C 1650.25,404.251 1664.42,390.085 1684.5,382C 1694.75,378.742 1705.08,376.575 1715.5,375.5 Z"/></g>
<g><path style="opacity:0.972" fill="#1967e6" d="M 1058.5,443.5 C 1085.83,443.5 1113.17,443.5 1140.5,443.5C 1140.5,644.833 1140.5,846.167 1140.5,1047.5C 1113.17,1047.5 1085.83,1047.5 1058.5,1047.5C 1058.5,846.167 1058.5,644.833 1058.5,443.5 Z"/></g>
<g><path style="opacity:0.991" fill="#1967e7" d="M 1879.5,471.5 C 1912.41,469.51 1932.24,484.51 1939,516.5C 1939.88,538.918 1930.71,555.751 1911.5,567C 1883.85,577.636 1861.35,571.136 1844,547.5C 1831.48,521.107 1836.31,498.607 1858.5,480C 1865.03,475.664 1872.03,472.831 1879.5,471.5 Z"/></g>
<g><path style="opacity:0.998" fill="#1967e6" d="M 1406.5,635.5 C 1429.53,632.61 1450.86,637.11 1470.5,649C 1480.29,657.083 1487.79,666.916 1493,678.5C 1495.54,686.441 1497.87,694.441 1500,702.5C 1502.48,720.75 1503.81,739.083 1504,757.5C 1504.5,854.166 1504.67,950.833 1504.5,1047.5C 1478.83,1047.5 1453.17,1047.5 1427.5,1047.5C 1427.67,948.499 1427.5,849.499 1427,750.5C 1421.69,710.433 1399.85,696.599 1361.5,709C 1351.63,715.718 1345.13,724.885 1342,736.5C 1341,743.167 1340,749.833 1339,756.5C 1338.5,853.499 1338.33,950.499 1338.5,1047.5C 1313.17,1047.5 1287.83,1047.5 1262.5,1047.5C 1262.5,912.167 1262.5,776.833 1262.5,641.5C 1287.83,641.5 1313.17,641.5 1338.5,641.5C 1338.33,656.504 1338.5,671.504 1339,686.5C 1345.05,675.136 1352.55,664.97 1361.5,656C 1367.83,651.169 1374.49,646.835 1381.5,643C 1389.81,640.012 1398.14,637.512 1406.5,635.5 Z"/></g>
<g><path style="opacity:0.994" fill="#1967e6" d="M 2179.5,635.5 C 2202.49,632.606 2223.83,637.106 2243.5,649C 2255.87,659.555 2264.37,672.722 2269,688.5C 2274.83,713.14 2277.16,738.14 2276,763.5C 2276.5,858.166 2276.67,952.833 2276.5,1047.5C 2250.83,1047.5 2225.17,1047.5 2199.5,1047.5C 2199.67,948.499 2199.5,849.499 2199,750.5C 2194.75,711.8 2173.92,697.634 2136.5,708C 2127.24,712.592 2120.74,719.759 2117,729.5C 2114.11,738.297 2112.11,747.297 2111,756.5C 2110.5,853.499 2110.33,950.499 2110.5,1047.5C 2085.17,1047.5 2059.83,1047.5 2034.5,1047.5C 2034.5,912.167 2034.5,776.833 2034.5,641.5C 2059.83,641.5 2085.17,641.5 2110.5,641.5C 2110.33,656.837 2110.5,672.17 2111,687.5C 2125.08,658.58 2147.91,641.246 2179.5,635.5 Z"/></g>
<g><path style="opacity:0.994" fill="#1967e7" d="M 2478.5,635.5 C 2511.34,631.846 2540.34,640.346 2565.5,661C 2584.04,680.308 2596.87,703.141 2604,729.5C 2614.41,772.528 2618.91,816.195 2617.5,860.5C 2561.83,860.5 2506.17,860.5 2450.5,860.5C 2450.57,880.53 2451.4,900.53 2453,920.5C 2455.32,936.138 2459.66,951.138 2466,965.5C 2478.21,985.121 2495.04,990.288 2516.5,981C 2526.94,973.644 2534.11,963.811 2538,951.5C 2541.14,938.005 2542.97,924.338 2543.5,910.5C 2567.17,910.5 2590.83,910.5 2614.5,910.5C 2615.16,943.869 2607.66,975.203 2592,1004.5C 2574.11,1031.56 2548.94,1047.72 2516.5,1053C 2458.12,1060.9 2416.62,1038.4 2392,985.5C 2387.37,972.711 2383.37,959.711 2380,946.5C 2374.1,913.774 2371.6,880.774 2372.5,847.5C 2371.63,813.891 2374.13,780.558 2380,747.5C 2385,724.17 2393.33,702.17 2405,681.5C 2416.68,664.573 2431.85,651.739 2450.5,643C 2459.8,639.845 2469.13,637.345 2478.5,635.5 Z M 2489.5,703.5 C 2504.91,703.344 2516.74,709.677 2525,722.5C 2536.6,748.93 2541.1,776.597 2538.5,805.5C 2509.17,805.5 2479.83,805.5 2450.5,805.5C 2450.22,787.117 2451.06,768.783 2453,750.5C 2454.95,734.44 2461.78,720.94 2473.5,710C 2478.74,707.315 2484.08,705.148 2489.5,703.5 Z"/></g>
<g><path style="opacity:0.994" fill="#1967e7" d="M 2812.5,635.5 C 2875.54,630.781 2918.04,657.781 2940,716.5C 2948.73,743.813 2953.73,771.813 2955,800.5C 2957.62,841.258 2956.62,881.925 2952,922.5C 2948.96,945.008 2942.96,966.675 2934,987.5C 2918.1,1022.18 2891.6,1043.68 2854.5,1052C 2788.08,1062.76 2742.58,1037.26 2718,975.5C 2704.51,933.434 2698.68,890.267 2700.5,846C 2698.66,801.85 2704.16,758.683 2717,716.5C 2724.85,695.341 2736.69,676.841 2752.5,661C 2770.03,646.734 2790.03,638.234 2812.5,635.5 Z M 2820.5,706.5 C 2837.93,703.971 2851.43,709.971 2861,724.5C 2866.37,734.261 2870.37,744.594 2873,755.5C 2875.49,768.732 2877.15,782.065 2878,795.5C 2878.67,828.5 2878.67,861.5 2878,894.5C 2876.9,914.684 2873.23,934.35 2867,953.5C 2861.99,965.172 2854.15,974.339 2843.5,981C 2822.7,987.462 2806.53,981.629 2795,963.5C 2789.89,952.978 2785.89,941.978 2783,930.5C 2781.23,917.88 2779.89,905.213 2779,892.5C 2778.33,860.833 2778.33,829.167 2779,797.5C 2778.6,771.694 2784.27,747.36 2796,724.5C 2801.93,715.15 2810.1,709.15 2820.5,706.5 Z"/></g>
<g><path style="opacity:0.997" fill="#1968e6" d="M 3197.5,635.5 C 3219.65,632.778 3240.31,636.945 3259.5,648C 3274.24,659.767 3283.74,674.933 3288,693.5C 3291.46,709.313 3293.46,725.313 3294,741.5C 3294.5,843.499 3294.67,945.499 3294.5,1047.5C 3268.83,1047.5 3243.17,1047.5 3217.5,1047.5C 3217.67,950.166 3217.5,852.833 3217,755.5C 3217.21,739.938 3212.37,726.272 3202.5,714.5C 3182.45,699.649 3162.62,699.982 3143,715.5C 3136.49,725.202 3132.15,735.869 3130,747.5C 3128.54,847.487 3128.04,947.487 3128.5,1047.5C 3102.83,1047.5 3077.17,1047.5 3051.5,1047.5C 3051.5,912.167 3051.5,776.833 3051.5,641.5C 3077.17,641.5 3102.83,641.5 3128.5,641.5C 3128.33,656.837 3128.5,672.17 3129,687.5C 3143.13,658.516 3165.96,641.183 3197.5,635.5 Z"/></g>
<g><path style="opacity:0.999" fill="#1867e7" d="M 1850.5,642.5 C 1876.17,642.5 1901.83,642.5 1927.5,642.5C 1927.5,777.5 1927.5,912.5 1927.5,1047.5C 1901.83,1047.5 1876.17,1047.5 1850.5,1047.5C 1850.5,912.5 1850.5,777.5 1850.5,642.5 Z"/></g>
<g><path style="opacity:1" fill="#d22c53" d="M 2263.5,1120.5 C 2271.83,1120.5 2280.17,1120.5 2288.5,1120.5C 2288.5,1199.5 2288.5,1278.5 2288.5,1357.5C 2280.17,1357.5 2271.83,1357.5 2263.5,1357.5C 2263.5,1278.5 2263.5,1199.5 2263.5,1120.5 Z"/></g>
<g><path style="opacity:0.982" fill="#d22c53" d="M 1604.5,1120.5 C 1612.83,1120.5 1621.17,1120.5 1629.5,1120.5C 1629.33,1159.17 1629.5,1197.83 1630,1236.5C 1648.74,1216.06 1670.57,1212.22 1695.5,1225C 1706.77,1234.39 1712.93,1246.56 1714,1261.5C 1714.5,1293.5 1714.67,1325.5 1714.5,1357.5C 1706.17,1357.5 1697.83,1357.5 1689.5,1357.5C 1689.67,1326.16 1689.5,1294.83 1689,1263.5C 1686.35,1248.68 1677.51,1241.34 1662.5,1241.5C 1645.52,1241.42 1635.35,1249.75 1632,1266.5C 1631.15,1270.47 1630.48,1274.47 1630,1278.5C 1629.5,1304.83 1629.33,1331.16 1629.5,1357.5C 1621.17,1357.5 1612.83,1357.5 1604.5,1357.5C 1604.5,1278.5 1604.5,1199.5 1604.5,1120.5 Z"/></g>
<g><path style="opacity:0.978" fill="#d32c52" d="M 2862.5,1154.5 C 2881.25,1153.74 2888.41,1162.4 2884,1180.5C 2877.79,1188.08 2869.95,1190.25 2860.5,1187C 2852.28,1182.05 2849.45,1174.89 2852,1165.5C 2853.59,1163.33 2854.92,1161 2856,1158.5C 2858.62,1157.78 2860.78,1156.45 2862.5,1154.5 Z"/></g>
<g><path style="opacity:0.964" fill="#d22b52" d="M 1056.5,1173.5 C 1064.83,1173.5 1073.17,1173.5 1081.5,1173.5C 1081.5,1189.5 1081.5,1205.5 1081.5,1221.5C 1089.5,1221.5 1097.5,1221.5 1105.5,1221.5C 1105.5,1229.17 1105.5,1236.83 1105.5,1244.5C 1097.5,1244.5 1089.5,1244.5 1081.5,1244.5C 1081.5,1282.17 1081.5,1319.83 1081.5,1357.5C 1073.17,1357.5 1064.83,1357.5 1056.5,1357.5C 1056.5,1319.83 1056.5,1282.17 1056.5,1244.5C 1052.17,1244.5 1047.83,1244.5 1043.5,1244.5C 1043.5,1236.83 1043.5,1229.17 1043.5,1221.5C 1047.83,1221.5 1052.17,1221.5 1056.5,1221.5C 1056.5,1205.5 1056.5,1189.5 1056.5,1173.5 Z"/></g>
<g><path style="opacity:0.985" fill="#d32b52" d="M 1237.5,1217.5 C 1277.99,1217.18 1301.49,1236.84 1308,1276.5C 1308.5,1282.82 1308.67,1289.16 1308.5,1295.5C 1273.17,1295.5 1237.83,1295.5 1202.5,1295.5C 1204.09,1316.19 1214.42,1330.02 1233.5,1337C 1252.72,1341.48 1268.56,1335.98 1281,1320.5C 1282.91,1317.03 1285.07,1313.7 1287.5,1310.5C 1293.96,1313.9 1300.3,1317.57 1306.5,1321.5C 1307.58,1322.36 1307.75,1323.36 1307,1324.5C 1290.36,1352.73 1265.53,1364.9 1232.5,1361C 1201.37,1354.3 1183.2,1335.13 1178,1303.5C 1175.08,1281.87 1179.41,1261.87 1191,1243.5C 1202.71,1228.22 1218.21,1219.56 1237.5,1217.5 Z M 1237.5,1241.5 C 1261.2,1240.16 1276.2,1250.83 1282.5,1273.5C 1256.51,1274.5 1230.51,1274.83 1204.5,1274.5C 1207.22,1261.91 1214.22,1252.41 1225.5,1246C 1229.3,1243.58 1233.3,1242.08 1237.5,1241.5 Z"/></g>
<g><path style="opacity:0.981" fill="#d32c52" d="M 1456.5,1217.5 C 1474.01,1216.84 1490.01,1221.34 1504.5,1231C 1505.49,1241.75 1505.82,1252.59 1505.5,1263.5C 1504.45,1263.65 1503.45,1263.48 1502.5,1263C 1484.09,1240.13 1461.75,1235.46 1435.5,1249C 1413.17,1269.31 1409.34,1292.81 1424,1319.5C 1445.29,1343.18 1468.79,1345.51 1494.5,1326.5C 1497.99,1323.42 1500.99,1319.92 1503.5,1316C 1504.45,1315.52 1505.45,1315.35 1506.5,1315.5C 1506.83,1326.52 1506.5,1337.52 1505.5,1348.5C 1481.29,1363.34 1455.96,1365.51 1429.5,1355C 1398.74,1337.45 1385.9,1310.95 1391,1275.5C 1396.37,1252.48 1409.53,1235.64 1430.5,1225C 1438.98,1221.34 1447.64,1218.84 1456.5,1217.5 Z"/></g>
<g><path style="opacity:0.992" fill="#d32b53" d="M 1878.5,1217.5 C 1895.49,1215.76 1909.65,1221.09 1921,1233.5C 1927.36,1245.61 1930.69,1258.61 1931,1272.5C 1931.5,1300.83 1931.67,1329.16 1931.5,1357.5C 1923.17,1357.5 1914.83,1357.5 1906.5,1357.5C 1906.94,1325.8 1906.44,1294.14 1905,1262.5C 1902.53,1247.53 1893.69,1240.53 1878.5,1241.5C 1863.4,1241.77 1853.56,1249.1 1849,1263.5C 1848.25,1268.49 1847.58,1273.49 1847,1278.5C 1846.5,1304.83 1846.33,1331.16 1846.5,1357.5C 1838.17,1357.5 1829.83,1357.5 1821.5,1357.5C 1821.5,1312.17 1821.5,1266.83 1821.5,1221.5C 1829.83,1221.5 1838.17,1221.5 1846.5,1221.5C 1846.33,1226.51 1846.5,1231.51 1847,1236.5C 1854.92,1225.95 1865.42,1219.62 1878.5,1217.5 Z"/></g>
<g><path style="opacity:0.981" fill="#d32b52" d="M 2091.5,1217.5 C 2119.4,1216.53 2141.56,1227.2 2158,1249.5C 2176.41,1283.57 2172.74,1314.9 2147,1343.5C 2124.1,1362.01 2098.6,1366.51 2070.5,1357C 2037.36,1340.9 2022.86,1314.4 2027,1277.5C 2035.16,1243.03 2056.66,1223.03 2091.5,1217.5 Z M 2090.5,1241.5 C 2123.69,1240.86 2142.03,1257.03 2145.5,1290C 2143.99,1312.99 2132.66,1328.66 2111.5,1337C 2081.19,1342.69 2061.36,1330.85 2052,1301.5C 2047.45,1273.76 2057.95,1254.26 2083.5,1243C 2086.04,1242.81 2088.37,1242.31 2090.5,1241.5 Z"/></g>
<g><path style="opacity:0.98" fill="#d32b52" d="M 2447.5,1217.5 C 2488.53,1217.37 2514.36,1237.04 2525,1276.5C 2529.41,1313.86 2514.91,1340.7 2481.5,1357C 2453.71,1366.44 2428.38,1362.11 2405.5,1344C 2380,1316.13 2375.83,1285.3 2393,1251.5C 2406.43,1232.57 2424.59,1221.24 2447.5,1217.5 Z M 2446.5,1241.5 C 2476.27,1239.8 2494.44,1253.47 2501,1282.5C 2502.76,1303.91 2494.93,1320.74 2477.5,1333C 2450.82,1344.44 2429.32,1338.27 2413,1314.5C 2404.89,1296.01 2405.89,1278.01 2416,1260.5C 2423.77,1250.21 2433.93,1243.87 2446.5,1241.5 Z"/></g>
<g><path style="opacity:0.983" fill="#d32b52" d="M 2667.5,1217.5 C 2688.03,1216.69 2705.19,1223.69 2719,1238.5C 2719.5,1232.84 2719.67,1227.18 2719.5,1221.5C 2727.83,1221.5 2736.17,1221.5 2744.5,1221.5C 2744.67,1271.17 2744.5,1320.83 2744,1370.5C 2739.8,1410.69 2717.47,1431.69 2677,1433.5C 2643.99,1433.11 2622.32,1417.44 2612,1386.5C 2611.37,1380.84 2610.87,1375.17 2610.5,1369.5C 2618.83,1369.5 2627.17,1369.5 2635.5,1369.5C 2635.7,1391.7 2646.7,1405.2 2668.5,1410C 2696.26,1413.54 2712.76,1401.71 2718,1374.5C 2719.52,1363.54 2719.85,1352.54 2719,1341.5C 2698.52,1361.57 2674.69,1366.74 2647.5,1357C 2623.2,1344.68 2610.04,1324.84 2608,1297.5C 2606.35,1275.38 2612.35,1255.71 2626,1238.5C 2637.49,1226.84 2651.32,1219.84 2667.5,1217.5 Z M 2669.5,1241.5 C 2701.53,1241.03 2718.87,1256.86 2721.5,1289C 2720.53,1302.58 2716.03,1314.75 2708,1325.5C 2689.37,1342.36 2669.87,1343.53 2649.5,1329C 2634.2,1312.19 2629.7,1292.69 2636,1270.5C 2642.19,1254.79 2653.36,1245.12 2669.5,1241.5 Z"/></g>
<g><path style="opacity:0.985" fill="#d32b52" d="M 3040.5,1217.5 C 3079.41,1217.59 3102.91,1236.59 3111,1274.5C 3111.5,1281.49 3111.67,1288.49 3111.5,1295.5C 3076.17,1295.5 3040.83,1295.5 3005.5,1295.5C 3008.42,1321.59 3022.92,1336.25 3049,1339.5C 3061.73,1338.14 3072.4,1332.8 3081,1323.5C 3084.19,1319.09 3087.36,1314.76 3090.5,1310.5C 3095.5,1313.67 3100.5,1316.83 3105.5,1320C 3107.02,1321.01 3108.69,1321.51 3110.5,1321.5C 3100.71,1343.75 3083.71,1356.92 3059.5,1361C 3030.68,1365.28 3007.84,1355.78 2991,1332.5C 2979.35,1309.42 2977.35,1285.42 2985,1260.5C 2994.92,1234.97 3013.42,1220.64 3040.5,1217.5 Z M 3040.5,1241.5 C 3063.83,1240.51 3078.83,1251.17 3085.5,1273.5C 3059.51,1274.5 3033.51,1274.83 3007.5,1274.5C 3009.73,1262.54 3016.07,1253.37 3026.5,1247C 3030.96,1244.26 3035.63,1242.42 3040.5,1241.5 Z"/></g>
<g><path style="opacity:0.981" fill="#d32b52" d="M 3239.5,1217.5 C 3254.29,1216.98 3266.45,1222.31 3276,1233.5C 3278.22,1236.77 3280.05,1240.27 3281.5,1244C 3275.12,1247.61 3268.62,1251.11 3262,1254.5C 3259.09,1250.42 3255.59,1246.75 3251.5,1243.5C 3242.7,1239.71 3235.2,1241.38 3229,1248.5C 3226,1258 3229.16,1264.83 3238.5,1269C 3250.33,1274.08 3261.99,1279.41 3273.5,1285C 3276.04,1287.87 3278.87,1290.37 3282,1292.5C 3284.24,1295.97 3286.24,1299.64 3288,1303.5C 3293.48,1325.01 3287.31,1342.17 3269.5,1355C 3245.13,1366.6 3223.29,1363.1 3204,1344.5C 3199.58,1339.67 3196.75,1334 3195.5,1327.5C 3197.57,1324.95 3200.24,1323.12 3203.5,1322C 3207.71,1320.65 3211.88,1319.15 3216,1317.5C 3218.8,1320.31 3220.8,1323.64 3222,1327.5C 3237.04,1344.14 3251.04,1343.47 3264,1325.5C 3266.35,1316.04 3263.52,1308.54 3255.5,1303C 3242.11,1297.47 3229.11,1291.14 3216.5,1284C 3201.3,1268.79 3199.47,1251.95 3211,1233.5C 3218.86,1225.15 3228.36,1219.82 3239.5,1217.5 Z"/></g>
<g><path style="opacity:0.974" fill="#d22c53" d="M 2855.5,1221.5 C 2863.83,1221.5 2872.17,1221.5 2880.5,1221.5C 2880.5,1266.83 2880.5,1312.17 2880.5,1357.5C 2872.17,1357.5 2863.83,1357.5 2855.5,1357.5C 2855.5,1312.17 2855.5,1266.83 2855.5,1221.5 Z"/></g>
</svg>
