<?xml version="1.0" encoding="utf-8"?>
<!-- Svg Vector Icons : http://www.onlinewebfonts.com/icon -->
<!DOCTYPE svg PUBLIC "-//W3C//DTD SVG 1.1//EN" "http://www.w3.org/Graphics/SVG/1.1/DTD/svg11.dtd">
<svg version="1.1" xmlns="http://www.w3.org/2000/svg" xmlns:xlink="http://www.w3.org/1999/xlink" x="0px" y="0px" viewBox="0 0 256 256" enable-background="new 0 0 256 256" xml:space="preserve">
<metadata> Svg Vector Icons : http://www.onlinewebfonts.com/icon </metadata>
<g> <path fill="#000000" d="M10,187h98.3V69H10V187z M23.1,82.1h72.1v91.8H23.1V82.1z M147.7,69v118H246V69H147.7z M232.9,173.9h-72.1 V82.1h72.1V173.9z M141.1,23.1c0-7.2-5.9-13.1-13.1-13.1c-7.2,0-13.1,5.9-13.1,13.1c0,4.9,2.6,9.1,6.6,11.4v187.1 c-3.9,2.3-6.6,6.5-6.6,11.3c0,7.2,5.9,13.1,13.1,13.1c7.2,0,13.1-5.9,13.1-13.1c0-4.9-2.6-9.1-6.6-11.4V34.5 C138.5,32.2,141.1,28,141.1,23.1z"/></g>
</svg>